# xmcd CD database file
#
# Track frame offsets:
#	150
#	32550
#	51675
#	78825
#	126750
#	152850
#	182099
#	205350
#	235125
#
# Disc length: 3480 seconds
#
# Revision: 0
# Processed by: cddbd v1.5.1PL0 Copyright (c) Steve Scherf et al.
# Submitted via: CDex 1.51
#
DISCID=770d9609
DTITLE=Junko Moriya - My Favorite Colors
DYEAR=1997
DGENRE=Jazz
TTITLE0=Dancing Puppet
TTITLE1=A Foggy Day
TTITLE2=Watercolor
TTITLE3=One For The Art Festival
TTITLE4=Song For K
TTITLE5=Cheerful Colors
TTITLE6=Lullaby
TTITLE7=All The Things You Are
TTITLE8=Stardust
EXTD=YEAR: 1997
EXTT0=
EXTT1=
EXTT2=
EXTT3=
EXTT4=
EXTT5=
EXTT6=
EXTT7=
EXTT8=
PLAYORDER=
